<?xml version="1.0" encoding="iso-8859-1"?>
<!-- Uploaded to: SVG Repo, www.svgrepo.com, Generator: SVG Repo Mixer Tools -->
<!DOCTYPE svg PUBLIC "-//W3C//DTD SVG 1.1//EN" "http://www.w3.org/Graphics/SVG/1.1/DTD/svg11.dtd">
<svg fill="#000000" version="1.1" id="Capa_1" xmlns="http://www.w3.org/2000/svg" xmlns:xlink="http://www.w3.org/1999/xlink" 
	 width="800px" height="800px" viewBox="0 0 112.066 112.066"
	 xml:space="preserve">
<g>
	<path d="M56.033,0C25.136,0,0,25.136,0,56.034c0,30.894,25.136,56.032,56.032,56.032c30.895,0,56.033-25.139,56.033-56.032
		C112.066,25.136,86.927,0,56.033,0z M56.033,106.464c-27.803,0-50.43-22.627-50.43-50.43c0-27.804,22.626-50.431,50.43-50.431
		c27.804,0,50.431,22.626,50.431,50.431C106.463,83.837,83.836,106.464,56.033,106.464z M91.957,62.397
		c-0.531-0.673-1.341-1.066-2.205-1.066H22.307c-0.857,0-1.67,0.394-2.204,1.066c-0.531,0.673-0.722,1.554-0.524,2.391
		c4.043,16.931,19.034,28.761,36.447,28.761c17.407,0,32.39-11.818,36.449-28.761C92.684,63.951,92.488,63.07,91.957,62.397z
		 M56.033,87.946c-13.598,0-25.455-8.481-29.972-21.013h59.937C81.478,79.465,69.62,87.946,56.033,87.946z M31.731,36.361
		c0-3.838,3.117-6.943,6.942-6.943c3.827,0,6.938,3.105,6.938,6.943c0,3.831-3.112,6.941-6.938,6.941
		C34.848,43.303,31.731,40.192,31.731,36.361z M66.454,36.361c0-3.838,3.105-6.943,6.938-6.943c3.819,0,6.933,3.105,6.933,6.943
		c0,3.831-3.127,6.941-6.933,6.941C69.559,43.303,66.454,40.192,66.454,36.361z"/>
</g>
</svg>